<?xml version="1.0" encoding="iso-8859-1"?>
<!-- Generator: Adobe Illustrator 24.1.0, SVG Export Plug-In . SVG Version: 6.00 Build 0)  -->
<svg version="1.1"
	 id="svg7898" xmlns:cc="http://creativecommons.org/ns#" xmlns:dc="http://purl.org/dc/elements/1.1/" xmlns:rdf="http://www.w3.org/1999/02/22-rdf-syntax-ns#" xmlns:svg="http://www.w3.org/2000/svg"
	 xmlns="http://www.w3.org/2000/svg" xmlns:xlink="http://www.w3.org/1999/xlink" x="0px" y="0px" viewBox="0 0 216.997 206.758"
	 style="enable-background:new 0 0 216.997 206.758;" xml:space="preserve">
<g id="g7906" transform="matrix(1.25,0,0,-1.25,-424.5206,605.65166)">
	<g id="g7928">
		<path style="fill:#FFFFFF;" d="M513.214,414.083c0,38.84-38.936,70.438-86.8,70.438c-47.857,0-86.798-31.598-86.798-70.438
			c0-34.82,30.879-63.98,72.591-69.495c2.827-0.609,6.674-1.864,7.647-4.28c0.875-2.195,0.572-5.632,0.28-7.849
			c0,0-1.018-6.125-1.238-7.429c-0.378-2.195-1.744-8.583,7.518-4.679c9.265,3.904,49.988,29.434,68.198,50.394h-0.003
			C507.189,384.54,513.214,398.539,513.214,414.083z M395.79,393.348c0-0.934-0.754-1.692-1.687-1.692h-24.322h-0.002
			c-0.454,0-0.864,0.18-1.168,0.473c-0.008,0.008-0.017,0.015-0.025,0.023c-0.01,0.008-0.017,0.017-0.023,0.025
			c-0.291,0.303-0.473,0.714-0.473,1.168v0.003v37.815c0,0.933,0.757,1.691,1.691,1.691h6.09c0.932,0,1.689-0.757,1.689-1.691
			v-30.036h16.543c0.933,0,1.687-0.757,1.687-1.691V393.348z M410.47,393.343c0-0.932-0.757-1.687-1.691-1.687h-6.088
			c-0.933,0-1.692,0.755-1.692,1.687v37.821c0,0.93,0.759,1.687,1.692,1.687h6.088c0.934,0,1.691-0.757,1.691-1.687V393.343z
			 M452.376,393.343c0-0.932-0.755-1.687-1.691-1.687h-6.088c-0.15,0-0.295,0.022-0.433,0.058c-0.008,0.002-0.017,0.005-0.025,0.005
			c-0.038,0.012-0.075,0.023-0.115,0.038c-0.017,0.005-0.033,0.012-0.05,0.018c-0.03,0.012-0.055,0.023-0.083,0.035
			c-0.027,0.012-0.055,0.025-0.08,0.04c-0.017,0.008-0.032,0.015-0.048,0.025c-0.035,0.02-0.07,0.042-0.105,0.063
			c-0.005,0.005-0.012,0.01-0.017,0.013c-0.161,0.11-0.31,0.248-0.429,0.418l-17.353,23.437v-22.463
			c0-0.932-0.757-1.687-1.692-1.687h-6.087c-0.933,0-1.692,0.755-1.692,1.687v37.821c0,0.93,0.759,1.687,1.692,1.687h6.087
			c0.022,0,0.038-0.003,0.06-0.003c0.03-0.002,0.058-0.002,0.087-0.005c0.03-0.003,0.06-0.005,0.09-0.012
			c0.023-0.002,0.048-0.005,0.072-0.008c0.032-0.007,0.063-0.015,0.097-0.022c0.02-0.007,0.04-0.01,0.058-0.017
			c0.035-0.008,0.068-0.02,0.102-0.032c0.018-0.007,0.035-0.013,0.055-0.02c0.033-0.012,0.065-0.027,0.096-0.042
			c0.018-0.007,0.035-0.017,0.053-0.025c0.03-0.015,0.06-0.033,0.09-0.052c0.018-0.008,0.035-0.018,0.052-0.03
			c0.03-0.018,0.058-0.04,0.088-0.06c0.015-0.012,0.03-0.022,0.043-0.035c0.032-0.023,0.062-0.048,0.09-0.075
			c0.012-0.01,0.022-0.018,0.032-0.028c0.035-0.033,0.068-0.067,0.102-0.105l0.012-0.01c0.047-0.055,0.092-0.111,0.131-0.171
			l17.332-23.407v22.47c0,0.93,0.757,1.687,1.691,1.687h6.088c0.935,0,1.691-0.757,1.691-1.687V393.343z M485.995,425.072
			c0-0.935-0.754-1.691-1.687-1.691h-16.541v-6.391h16.541c0.934,0,1.687-0.759,1.687-1.692v-6.088c0-0.933-0.754-1.691-1.687-1.691
			h-16.541v-6.393h16.541c0.934,0,1.687-0.759,1.687-1.691v-6.09c0-0.932-0.754-1.691-1.687-1.691h-24.322h-0.003
			c-0.453,0-0.864,0.181-1.166,0.473c-0.008,0.007-0.018,0.015-0.025,0.023c-0.008,0.007-0.017,0.017-0.023,0.025
			c-0.291,0.303-0.473,0.714-0.473,1.168v0.002v37.815v0.002c0,0.453,0.18,0.862,0.469,1.165c0.008,0.01,0.017,0.02,0.027,0.03
			c0.005,0.007,0.013,0.012,0.02,0.018c0.305,0.295,0.715,0.478,1.171,0.478h0.003h24.322c0.934,0,1.687-0.759,1.687-1.692V425.072z
			"/>
	</g>
</g>
</svg>
