<?xml version="1.0" encoding="utf-8"?>
<!-- Generator: Adobe Illustrator 25.2.3, SVG Export Plug-In . SVG Version: 6.00 Build 0)  -->
<svg version="1.1" id="레이어_1" xmlns="http://www.w3.org/2000/svg" xmlns:xlink="http://www.w3.org/1999/xlink" x="0px"
	 y="0px" viewBox="0 0 37.93 26.58" style="enable-background:new 0 0 37.93 26.58;" xml:space="preserve">
<style type="text/css">
	.st0{fill:#040000;}
</style>
<g>
	<g>
		<g>
			<g>
				<g>
					<g>
						<polygon class="st0" points="29.77,0 26.1,17.72 26.04,17.72 22.38,0 13.14,0 13.14,16.52 5.69,0 0,0 0,26.58 5.21,26.58 
							5.21,9.88 12.66,26.58 19.43,26.58 19.43,6.14 23.96,26.58 28.16,26.58 28.19,26.58 32.64,6.48 32.72,6.31 32.72,26.58 
							37.93,26.58 37.93,0 						"/>
					</g>
				</g>
			</g>
		</g>
		<g>
			<g>
				<g>
					<g>
						<polygon class="st0" points="29.77,0 26.1,17.72 26.04,17.72 22.38,0 13.14,0 13.14,16.52 5.69,0 0,0 0,26.58 5.21,26.58 
							5.21,9.88 12.66,26.58 19.43,26.58 19.43,6.14 23.96,26.58 28.16,26.58 28.19,26.58 32.64,6.48 32.72,6.31 32.72,26.58 
							37.93,26.58 37.93,0 						"/>
					</g>
				</g>
			</g>
		</g>
	</g>
</g>
</svg>
